<svg xmlns="http://www.w3.org/2000/svg" viewBox="0 0 1335.5 1022.9" role="img" aria-label="GymBuddy — AI. Training. Results.">
  <title>GymBuddy — AI. Training. Results.</title>
  <!-- Figure above wordmark, for light surfaces. The figure is red in every colourway. -->
  <path d="M647.28 0 L634.58 1.41 L625.18 3.78 L621.88 5.65 L615.78 7.06 L604.94 12.7 L590.38 23.54 L581.66 32.72 L576.01 41.64 L571.78 54.82 L571.32 66.11 L572.74 75.51 L576.01 82.11 L580.72 87.76 L580.24 103.74 L581.66 112.68 L591.54 131.03 L598.59 166.8 L604.24 180.91 L618.35 203.94 L641.19 229.6 L652.48 238.07 L665.63 242.76 L674.1 243.72 L684.46 240.89 L691.04 237.59 L702.33 229.6 L709.87 221.59 L711.05 222.29 L710.57 225.12 L701.62 236.41 L698.09 239.48 L688.69 245.58 L680.71 248.4 L675.99 249.36 L665.18 248.88 L655.3 245.58 L650.11 242.76 L645.87 243.72 L642.12 246.06 L629.42 250.77 L626.37 253.34 L626.59 254.05 L639.3 258.28 L648.24 263.93 L649.4 265.11 L648.7 266.75 L644.94 266.3 L635.06 261.11 L624.25 257.83 L608.25 256.42 L595.54 258.28 L579.54 263.93 L565.42 272.4 L556.25 281.57 L550.61 289.59 L548.97 293.57 L547.78 292.86 L547.78 288.18 L551.09 279.23 L549.9 277.59 L547.56 277.59 L530.62 286.51 L516.73 298.99 L508.26 310.76 L502.62 322.5 L499.34 335.68 L498.86 353.55 L497.93 355.44 L488.76 359.9 L476.99 368.37 L463.1 382.26 L454.63 394.03 L446.16 410.49 L443.34 418.95 L441 434.96 L441.48 449.07 L440.07 452.35 L434.87 457.54 L429.71 466.01 L423.58 481.99 L420.76 495.17 L419.35 508.8 L420.31 528.11 L424.54 536.1 L430.41 541.97 L435.58 545.75 L452.06 554.22 L455.34 554.67 L459.57 557.04 L463.35 557.5 L468.52 559.87 L473.23 560.32 L480.29 562.69 L503.32 565.51 L522.15 565.51 L546.63 562.69 L554.13 560.32 L559.33 559.87 L564.49 557.5 L577.2 554.22 L580.95 551.85 L584.25 551.4 L587.56 549.03 L590.38 548.58 L595.77 545.05 L595.32 542.22 L581.66 527.63 L567.09 506.94 L550.61 487.18 L537.68 472.81 L524.49 461.52 L514.62 455.88 L504.74 452.6 L490.17 451.19 L478.4 452.6 L472.75 452.6 L472.05 451.9 L472.75 450.23 L475.58 449.78 L478.88 447.41 L492.03 445.06 L498.16 445.06 L511.79 447.41 L524.49 452.6 L528.28 455.42 L530.14 455.42 L540.5 444.13 L551.31 436.12 L557.44 433.29 L569.21 430.47 L570.36 429.31 L570.36 425.08 L567.54 417.06 L567.09 408.14 L565.68 402.5 L565.68 390.25 L567.54 377.09 L569.91 370.97 L570.36 366.73 L576.01 353.1 L581.66 345.08 L588.49 338.73 L589.19 341.33 L587.3 343.22 L581.66 354.03 L575.56 372.38 L572.26 394.03 L573.19 410.49 L576.01 424.12 L579.09 430.02 L586.14 430.47 L596.48 433.29 L606.83 438.49 L610.14 438.49 L612.96 436.12 L629.42 427.65 L649.4 420.85 L649.4 416.61 L646.58 408.59 L644.24 392.62 L645.17 376.61 L646.58 368.14 L652.22 352.62 L655.05 346.04 L661.88 336.39 L664.7 335.46 L664.93 338.51 L657.87 352.62 L657.42 356.37 L654.6 362.5 L651.77 378.02 L651.77 402.02 L654.6 411.42 L655.05 417.06 L656.23 418.73 L670.35 418.73 L680.93 403.91 L690.11 393.78 L704.7 382.48 L715.03 376.84 L729.62 372.15 L738.57 370.74 L751.73 371.19 L757.85 373.56 L763.02 374.02 L764.2 375.2 L763.5 376.84 L739.02 376.84 L725.87 379.66 L713.17 385.31 L704.7 390.95 L688.92 405.77 L680 416.61 L677.18 424.6 L675.51 426.72 L656.23 427.2 L642.12 430.47 L607.77 446.48 L605.42 446.48 L598.37 441.76 L589.42 438.49 L580.02 437.08 L565.42 438.49 L551.31 444.58 L543.8 450.23 L536.04 458.95 L536.49 462.23 L555.8 481.53 L581.66 515.86 L603.08 540.11 L610.59 545.75 L620.95 551.4 L624.7 551.85 L629.42 554.22 L636.95 555.15 L652.48 554.22 L662.36 551.4 L666.59 549.03 L686.35 543.38 L698.57 542.93 L709.87 540.11 L723.98 531.64 L731.52 523.62 L747.49 509.51 L765.84 501.04 L769.14 500.59 L788.9 489.3 L804.2 474.93 L820.66 451.42 L826.78 440.6 L830.06 430.73 L832.43 426.94 L833.36 418.02 L838.78 413.53 L848.18 410.26 L857.58 404.61 L869.13 393.07 L879.94 373.79 L883.24 364.39 L883.69 357.33 L884.88 356.63 L886.06 357.79 L886.06 370.49 L882.76 381.33 L877.11 393.07 L870.99 401.54 L861.81 409.78 L853.35 414.95 L843.02 418.73 L840.42 420.85 L838.53 423.67 L837.12 432.14 L831.95 445.77 L821.14 463.19 L807.03 482.47 L800.19 489.3 L788.9 497.29 L752.69 515.63 L745.63 520.8 L734.79 531.64 L721.16 541.97 L708.45 547.62 L700.92 549.03 L694.57 552.1 L695.05 576.55 L693.15 597.72 L691.74 600.09 L691.29 606.19 L684.69 623.6 L676.7 634.42 L670.35 640.77 L667.52 641.25 L666.82 640.54 L677.18 625.02 L685.65 602.91 L686.1 595.38 L687.99 587.84 L687.99 569.97 L685.65 553.52 L683.05 552.33 L649.66 561.73 L632.72 562.21 L614.82 557.04 L605.42 551.4 L599.78 546.2 L595.77 550.21 L587.3 569.97 L586.85 573.73 L581.2 588.32 L570.36 609.49 L561.9 635.83 L560.49 647.12 L561.44 649.49 L564.97 653.02 L577.2 658.66 L602.12 664.31 L610.59 664.76 L620.95 667.13 L630.35 667.13 L633.88 668.77 L628.49 670.41 L598.37 669.47 L574.85 664.31 L567.32 661.49 L563.08 658.66 L560.26 659.11 L550.61 679.13 L550.15 682.88 L547.78 687.6 L548.26 690.87 L552.27 695.36 L554.13 695.81 L556.5 698.18 L576.26 706.65 L599.3 712.3 L612.96 713.71 L643.05 714.64 L651.52 712.75 L659.99 712.3 L666.59 709.92 L672.24 709.47 L677.88 707.1 L684.46 706.17 L687.28 704.28 L693.41 703.83 L694.57 704.98 L677.4 712.3 L672.69 712.75 L667.52 715.12 L662.36 715.57 L655.3 717.94 L637.89 720.28 L613.89 720.28 L592.72 717.46 L579.54 714.16 L569.66 709.92 L566.38 709.47 L546.15 699.11 L542.14 702.16 L539.31 707.36 L530.39 733.21 L530.39 736.04 L531.81 738.86 L534.37 741.93 L537.2 742.87 L808.18 742.87 L812.19 739.34 L811.71 735.58 L804.2 706.88 L799.01 699.34 L796.67 693.69 L797.15 679.13 L795.73 670.18 L787.72 648.53 L787.27 634.42 L783.74 624.79 L780.43 625.24 L777.61 627.61 L774.79 628.06 L771.49 630.44 L743.26 641.25 L698.09 650.65 L688.69 655.84 L678.82 664.76 L677.18 663.12 L685.87 653.02 L695.75 645 L699.51 644.55 L704.7 642.18 L710.8 641.73 L717.4 639.36 L723.98 638.9 L731.04 636.53 L735.75 636.08 L744.67 633.26 L752.91 628.77 L753.84 626.91 L753.84 613.72 L756.22 602.91 L756.67 594.45 L765.14 570.9 L798.56 527.63 L809.85 508.8 L815.94 494.24 L820.43 487.41 L822.3 486.93 L823 488.11 L821.59 489.04 L821.14 493.28 L818.77 497.99 L818.32 501.29 L808.89 521.05 L792.91 546.91 L773.6 570.45 L767.96 580.78 L766.55 587.84 L765.14 590.21 L764.68 598.2 L762.31 606.19 L761.86 617.96 L759.97 623.6 L763.5 624.31 L776.2 616.32 L782.33 611.13 L784.19 610.68 L791.95 603.85 L803.24 590.66 L809.85 578.92 L815.49 564.81 L815.94 561.5 L818.32 557.27 L818.77 553.97 L821.14 549.73 L821.59 546.46 L832.88 523.88 L838.53 515.86 L860.66 493.28 L869.13 479.16 L874.77 465.05 L875.22 459.4 L877.59 452.35 L878.05 442.02 L879.46 436.37 L879.46 428.35 L880.42 425.53 L885.81 421.55 L899.22 407.18 L903 401.09 L908.16 389.32 L914.29 367.66 L916.15 353.1 L916.15 336.61 L914.74 331.45 L914.29 323.91 L908.64 306.52 L906.27 303.22 L905.82 300.88 L897.35 289.59 L890.52 283.69 L881.57 278.04 L876.41 275.22 L869.13 273.1 L871.24 271.46 L875 271.46 L884.88 273.36 L886.06 269.83 L883.69 265.59 L883.24 261.81 L877.59 251.93 L871.95 244.87 L862.29 235.7 L845.36 226.78 L834.07 223.48 L831.24 221.59 L824.19 220.18 L814.31 215.94 L810.55 215.49 L796.89 209.36 L786.56 203.72 L774.79 195.73 L760.68 182.55 L759.04 185.14 L759.49 202.53 L757.85 203.72 L757.15 203.01 L756.22 195.96 L753.84 188.9 L753.39 179.95 L751.02 173.37 L750.57 167.73 L748.2 162.08 L746.79 150.31 L744.22 146.33 L738.09 143.96 L736.46 140.91 L737.16 139.73 L743.74 141.14 L746.56 140.69 L749.38 139.28 L753.39 133.86 L756.22 121.15 L756.22 97.64 L753.39 89.62 L747.04 82.34 L742.81 80.45 L740.44 80.45 L735.27 83.27 L733.63 83.05 L735.98 71.75 L736.46 58.57 L733.63 43.53 L731.26 38.81 L730.81 35.06 L722.34 20.94 L713.62 12.7 L707.52 9.88 L694.82 9.43 L687.76 12.7 L672.69 25.88 L671.98 25.18 L672.46 22.84 L677.18 15.78 L682.82 10.59 L684.23 8.24 L683.76 7.31 L680.23 4.23 L670.83 0.96Z M746.34 265.11 L761.61 266.75 L764.2 267.94 L763.98 270.53 L754.55 270.05 L734.79 271.94 L718.81 277.59 L698.09 289.33 L684.94 300.62 L673.17 314.29 L670.35 315.7 L669.16 314.51 L668.71 303.7 L663.52 292.41 L657.87 285.35 L659.06 282.76 L664.22 283.69 L667.75 286.76 L670.57 290.52 L674.36 299.92 L675.99 300.62 L683.98 292.16 L698.57 280.86 L707.52 275.22 L719.75 269.57 L723.5 269.12 L728.69 266.75Z M622.13 574.69 L623.55 576.1 L623.55 582.19 L621.17 589.25 L619.31 600.54 L620.47 602.66 L625.66 604.07 L640.71 604.07 L651.52 602.21 L658.12 599.39 L660.69 601.02 L657.16 604.55 L650.11 607.85 L640.23 610.2 L617.19 609.26 L615.53 610.9 L612.71 617.48 L612.25 621.26 L609.88 626.43 L609.88 629.25 L612.48 630.44 L627.07 632.78 L639.78 632.78 L649.66 630.44 L652 630.89 L652.7 632.07 L645.42 636.08 L631.76 638.42 L623.77 638.42 L613.41 636.53 L607.77 636.53 L604.24 642.88 L602.83 649.49 L599.78 654.43 L598.14 652.76 L598.14 644.3 L600.48 637.24 L600 633.96 L587.56 629.48 L584.48 627.36 L581.66 623.12 L582.84 621.97 L585.66 621.97 L590.38 624.79 L598.85 627.61 L601.67 627.61 L603.31 626.43 L609.88 608.56 L606.83 605.96 L595.54 599.84 L592.95 597.27 L592.5 594.45 L595.06 593.74 L604.94 599.39 L610.59 601.25 L612 600.8 L613.67 599.13 L615.08 595.38 L618.35 581.26Z" fill="#E63935" fill-rule="evenodd"/>
  <path d="M81.62 775.65 L71.62 776.4 L64.87 777.65 L53.87 781.65 L48.62 784.4 L40.87 790.4 L37.25 794.02 L32 801.02 L28 808.02 L25 817.77 L21.25 826.52 L18.75 835.02 L15.25 842.77 L12 853.52 L9.25 860.27 L8 865.02 L5.25 871.52 L2 882.02 L1.25 883.27 L0 888.27 L0 899.02 L2 905.02 L5 910.02 L8.37 913.4 L12.62 916.15 L18.62 918.4 L21.87 919.15 L30.12 919.9 L90.62 919.65 L105.87 920.15 L118.87 919.15 L126.87 917.15 L132.62 915.15 L136.62 913.15 L142.62 909.15 L147.37 905.15 L153 899.02 L155 896.27 L158 890.77 L161.75 881.77 L165 871.77 L166.75 868.27 L170 857.77 L172 853.77 L175 842.27 L178 835.52 L179.75 830.27 L180 828.77 L179.37 828.15 L110.62 827.9 L104.37 828.65 L98.37 831.4 L95 834.52 L82 855.02 L80 859.02 L80.37 859.4 L117.37 859.65 L117.75 860.02 L117.75 861.27 L116 867.02 L113.75 872.27 L111.62 875.4 L109.12 877.15 L106.62 878.15 L64.37 878.4 L59.12 877.15 L56 874.02 L56 866.77 L57.75 862.77 L60.25 854.52 L60.75 854.02 L63 846.02 L63.75 845.02 L65.25 840.02 L66 838.77 L66 837.77 L66.75 836.52 L70.25 825.02 L72.75 820.77 L75.25 817.77 L77.87 815.65 L82.87 813.65 L86.62 813.15 L176.37 813.15 L177.5 812.27 L177 793.02 L176 785.77 L173.75 781.77 L171.37 779.4 L168.37 777.65 L164.37 776.4 L155.87 775.65Z M179.62 775.65 L179.25 777.02 L180 778.02 L183 786.77 L186 792.77 L189.25 801.77 L196 816.27 L200 826.52 L202.75 832.02 L205.25 839.27 L206 840.27 L207.25 844.02 L213 856.27 L216 863.77 L210.75 880.77 L207.25 888.77 L204 900.27 L199 913.52 L199 914.52 L197.5 918.52 L197.5 919.02 L198.12 919.4 L243.62 919.4 L252 895.52 L254 887.52 L256 883.27 L258 875.77 L262 865.02 L268.25 859.02 L270.37 856.4 L279.62 848.4 L289.37 838.15 L294.87 833.4 L306.37 821.4 L321.87 806.4 L326.87 802.15 L337.37 791.4 L342.62 787.15 L348.62 781.4 L349 781.77 L349 783.02 L348 785.27 L344 799.27 L340 809.02 L339 813.02 L334.25 826.02 L331 836.77 L328.25 843.52 L327 848.27 L325.25 852.27 L323 860.02 L318.25 872.02 L315.75 882.02 L311.25 892.27 L308.75 900.52 L307.25 903.77 L303.25 916.02 L302.75 919.02 L303.37 919.4 L325.87 919.65 L350.37 919.4 L351 919.02 L355.75 905.27 L356 903.52 L358.75 896.77 L360.25 890.27 L363.75 882.77 L366 873.52 L370.25 861.52 L370.75 861.02 L374.25 849.27 L377 842.27 L377.62 841.65 L378.75 843.02 L382.25 853.02 L382.75 853.52 L387.25 867.77 L389 871.77 L392.25 882.77 L394.75 888.52 L396.25 894.02 L397.37 895.4 L402.12 895.65 L411.37 895.15 L426.75 880.27 L435.37 870.65 L439.87 867.15 L442.75 864.27 L444.75 861.52 L451.37 854.65 L455.62 851.4 L461.62 845.4 L462 846.02 L460 850.77 L458.75 857.27 L456.25 864.02 L456 866.02 L453.25 872.52 L451 880.52 L446.75 892.52 L446.25 893.02 L444.75 899.02 L443 903.02 L437.75 919.02 L438.37 919.4 L486.37 919.65 L487.25 918.52 L489 914.02 L489 913.02 L491.75 905.52 L493.25 900.02 L498 887.52 L502 873.77 L505.75 865.02 L508 857.02 L510.75 850.02 L514 839.27 L516.75 832.52 L518 827.77 L520.75 821.02 L521.25 818.77 L521.75 818.27 L522.25 816.02 L522.75 815.52 L524.25 809.77 L525 808.52 L525.25 806.52 L526 805.52 L526.25 803.52 L528 799.77 L528.25 797.77 L529.25 796.02 L529.25 794.77 L530 794.02 L530.25 791.77 L531 791.02 L531.25 789.02 L532 788.27 L532.25 785.77 L533 784.52 L533 783.27 L535 778.02 L534.75 777.27 L533.87 776.65 L478.12 776.15 L468 786.77 L464.62 789.65 L460.75 794.02 L445.75 808.77 L440 815.27 L431 823.77 L425 830.52 L423.62 831.4 L423 830.52 L422.75 828.52 L418 815.52 L416 808.27 L413 801.02 L409.75 789.52 L405.25 777.27 L403.62 776.15 L396.12 776.15 L394.87 775.65 L385.37 775.65 L384.37 776.15 L383.37 775.65 L303.37 775.65 L302.37 776.15 L290.62 788.15 L288.62 789.65 L284.75 794.02 L269 809.52 L268 811.02 L250.37 828.15 L249 826.27 L241.75 808.77 L238 801.02 L235.75 794.52 L231 785.27 L231 784.52 L227.37 776.4 L226.62 775.9 L221.87 775.65Z M642.87 934.15 L628.62 934.65 L604.37 934.4 L602.12 934.9 L598.12 934.4 L597.62 935.15 L587.62 934.65 L587.62 935.15 L582.87 934.9 L575.37 935.4 L538.62 935.4 L537.12 935.9 L536.87 935.4 L533.62 935.4 L533.37 935.9 L531.87 935.4 L529.87 935.9 L525.37 935.65 L519.87 936.15 L479.12 936.4 L454.37 937.4 L430.12 937.4 L413.37 938.4 L379.87 938.65 L363.62 939.4 L319.12 939.65 L306.62 940.4 L268.37 940.65 L250.12 941.4 L209.37 941.9 L203.37 942.4 L183.87 942.4 L169.87 943.15 L168.12 942.9 L119.87 943.9 L113.62 944.4 L85.12 944.65 L78.37 945.15 L68.87 945.15 L66 945.77 L72.87 946.4 L81.62 946.4 L88.12 947.15 L130.12 948.65 L134.62 949.15 L211.37 951.4 L228.12 952.4 L243.87 952.4 L259.87 953.4 L277.87 953.4 L307.37 954.65 L347.37 955.4 L352.37 955.9 L429.12 957.4 L451.62 958.4 L470.12 958.65 L474.87 959.15 L504.12 959.4 L514.62 960.15 L546.62 960.4 L562.87 961.4 L616.37 962.4 L628.37 950.65 L629.12 950.4 L637.37 941.4 L638.12 941.15 L640.62 938.4 L644.75 935.02 L644.62 934.4Z" fill="#0D0D0D" fill-rule="evenodd"/>
  <path d="M1038.87 775.4 L1034.62 775.65 L1033.25 777.02 L1032 782.02 L1027 795.77 L1025 803.27 L1022 810.77 L1022 811.77 L1018.25 823.02 L1018 825.02 L1015.25 832.02 L1015 833.77 L1014.25 835.02 L1011 845.02 L1011 846.02 L1006.25 859.27 L1001 877.27 L998 885.02 L998 886.02 L997.25 887.27 L995 895.27 L990.25 908.52 L987.25 919.02 L988.37 919.4 L996.62 919.65 L1092.37 919.4 L1103.37 917.15 L1113.87 913.15 L1122.37 907.4 L1131 899.02 L1133.75 895.02 L1138 886.52 L1142.25 872.77 L1146.75 861.02 L1150 849.27 L1155 834.27 L1155 833.27 L1156 831.27 L1160.75 816.77 L1162 809.02 L1162 804.52 L1161 798.77 L1158 791.77 L1156 789.02 L1152.37 785.4 L1147.37 781.65 L1140.62 778.65 L1131.87 776.4 L1123.37 775.4Z M1165.12 775.4 L1162.5 776.02 L1164 779.77 L1164 780.77 L1170.75 796.27 L1173.25 803.02 L1179 815.52 L1184.25 829.02 L1187.75 836.52 L1191.25 845.52 L1192 846.52 L1198.75 863.27 L1198.75 864.77 L1198 866.02 L1198 867.02 L1194 879.52 L1193.25 880.77 L1193 882.52 L1190.25 889.27 L1187.75 897.77 L1183.25 909.02 L1180.75 917.77 L1180.75 918.77 L1182.37 919.4 L1224.37 919.15 L1226.75 915.02 L1230 905.02 L1230 903.77 L1232 899.02 L1232 898.02 L1232.75 896.77 L1236.25 885.27 L1239 878.27 L1241 870.77 L1243.25 865.27 L1252.37 856.15 L1258.37 851.15 L1266.37 842.65 L1274.62 835.4 L1285.37 824.65 L1291.62 819.15 L1320.87 790.4 L1326.87 785.15 L1335.5 776.27 L1335.37 775.65 L1331.12 775.4 L1286.12 775.65 L1278.75 782.77 L1273.87 788.15 L1268.25 793.02 L1259.62 802.4 L1252.37 808.65 L1238.62 822.65 L1235.37 825.15 L1233.37 827.4 L1232.25 826.77 L1230.75 822.77 L1228.25 818.02 L1225 809.27 L1221 801.02 L1217 790.02 L1213 781.52 L1211 776.02 L1210.37 775.4Z M395.12 775.65 L396.12 776.15 L403.62 776.15 L405 777.02 L405 776.52 L403.62 775.65Z M491.62 775.65 L478.37 775.9 L484.12 776.4 L495.87 776.15 L504.87 776.65 L533.87 776.65 L534.75 777.27 L535 778.02 L534 780.02 L533 784.52 L532.25 785.77 L532 786.77 L532.37 787.15 L534 782.77 L535 778.52 L535.75 777.27 L535.75 776.27 L534.87 775.65Z M586.62 775.65 L582.62 775.9 L581.25 777.52 L579 785.77 L577.25 789.77 L576.75 792.27 L573.25 801.77 L573 803.52 L571.25 807.77 L567.75 819.27 L566.25 822.52 L562.75 833.77 L561 837.77 L558.75 845.77 L557 850.27 L557 851.27 L550 872.27 L549.25 873.52 L549 875.52 L547.25 880.02 L547 881.77 L543.25 890.52 L541 898.52 L538.25 905.27 L536 913.27 L533.75 919.27 L534.37 919.9 L643.37 919.65 L648.87 919.15 L656.87 917.4 L663.62 915.15 L667.37 913.15 L673.12 909.15 L680 902.27 L683.75 897.27 L687.75 889.02 L689 885.27 L689 884.02 L689.75 883.02 L693.75 869.77 L694.75 861.77 L694 855.77 L692.75 852.27 L689.62 848.4 L686.37 846.4 L686 845.77 L686.87 844.9 L693.87 841.4 L696.87 839.15 L701.75 833.77 L705.75 827.02 L709.75 815.02 L712.25 804.27 L712.5 799.27 L712 794.77 L710 790.02 L707.75 787.02 L704.37 783.65 L699.62 780.4 L692.12 777.65 L685.37 776.4 L675.87 775.65Z M734.87 775.65 L733.62 775.9 L732.25 777.27 L731.25 779.77 L729.75 785.27 L726.25 794.02 L724 801.77 L721 809.77 L720.75 811.52 L720.25 812.02 L717 821.52 L717 822.52 L715.25 827.02 L712.75 836.02 L711.25 839.27 L702 866.77 L702 867.77 L701.25 869.02 L701 871.27 L697.25 882.77 L695.75 890.77 L695.5 897.02 L696 900.02 L698.25 905.77 L701.25 910.52 L706.37 915.15 L713.12 918.15 L719.12 919.4 L792.62 919.4 L803.87 917.4 L810.62 915.15 L818.37 910.4 L823.62 906.15 L828.75 900.27 L833.75 892.02 L839 877.27 L840.25 872.27 L840.75 871.77 L845.75 857.27 L848 848.52 L850.75 841.27 L855.25 825.52 L855.75 825.02 L857 820.27 L862 806.77 L862.25 804.77 L866 794.52 L867 790.27 L867.75 789.02 L869.25 783.52 L869.75 783.02 L871.5 776.52 L870.62 775.9 L868.62 775.65 L829.62 775.65 L826.62 776.4 L825.25 779.52 L822.75 788.27 L820.25 794.02 L818 802.02 L816 806.27 L813.25 814.77 L813 816.77 L809.25 826.77 L805.75 838.27 L805.25 838.77 L802 850.02 L798.25 859.52 L795.75 868.27 L794.75 871.02 L793 874.02 L788.62 878.15 L783.12 880.4 L776.62 880.9 L763.62 880.9 L748.12 880.4 L746.62 879.65 L745.25 878.27 L744.75 874.77 L745 872.77 L747.75 866.27 L749.25 860.02 L749.75 859.52 L750 857.77 L752 852.77 L752 851.77 L755.75 841.02 L757 836.02 L758 834.02 L760 826.52 L763 818.77 L765.25 810.77 L765.75 810.27 L766 808.27 L769.75 797.27 L771 791.77 L773.75 784.77 L776 776.77 L775.62 776.15 L762.62 775.65Z M885.87 775.65 L884.62 775.9 L883.75 776.77 L880.75 786.52 L878.25 792.52 L875 803.77 L874.25 805.02 L873 809.77 L872.25 811.02 L868.25 823.02 L865 834.52 L863.25 838.27 L859 851.27 L859 852.27 L857 857.52 L857 858.52 L852 873.27 L851.25 874.52 L849 883.02 L847.25 887.02 L846 891.77 L845.25 893.02 L845 894.77 L843.25 899.02 L843 900.77 L836.75 919.02 L839.12 919.65 L938.62 919.4 L946.87 918.4 L954.87 916.4 L961.87 913.4 L967.87 910.15 L972.62 906.4 L979.5 899.02 L982.75 894.27 L985.75 888.77 L988 883.02 L991.25 872.27 L992.75 869.02 L994 864.27 L994.75 863.02 L997 854.52 L998.75 850.27 L1002 839.52 L1008 823.02 L1008 821.77 L1010 815.27 L1010.75 811.27 L1011 804.77 L1010 798.77 L1009 795.52 L1007 791.52 L1001.87 785.4 L997.62 782.4 L988.37 778.4 L979.62 776.4 L974.12 776.15 L972.37 775.65Z M930.25 811.77 L944.87 811.65 L953.12 812.4 L956.75 814.52 L958 816.52 L958.5 818.27 L958.5 822.77 L956 831.77 L954 837.77 L952.25 841.52 L950.75 847.27 L948 854.27 L942.75 870.77 L940.75 874.27 L937.62 877.65 L933.87 880.15 L930.37 881.4 L924.87 882.15 L900.87 882.15 L895.87 881.65 L895.25 881.27 L895.25 880.52 L896 879.52 L898 872.27 L899.75 868.27 L904 854.27 L905 852.52 L907.75 844.52 L909 839.27 L910 837.52 L910 836.52 L912.75 829.27 L917.25 814.02 L918.62 812.15Z M1069.75 812.02 L1100.12 811.9 L1103.87 812.4 L1106.62 813.65 L1108.75 816.02 L1109.75 818.52 L1109.75 821.02 L1109 824.52 L1107.25 829.27 L1107 831.27 L1103 841.02 L1094.75 867.52 L1091.75 873.77 L1088.87 877.15 L1083.12 880.65 L1077.87 881.9 L1046.62 881.9 L1046 880.77 L1050.75 868.02 L1053.25 859.52 L1054 858.27 L1056.25 849.77 L1059 842.77 L1060 838.52 L1061.75 834.02 L1063 828.77 L1065 822.77 L1066.75 819.02 L1068.25 813.52Z M624.25 812.52 L649.62 812.4 L655.37 812.65 L658.87 813.4 L660.75 815.02 L661.25 816.27 L661.5 818.27 L660.75 822.02 L659.75 824.02 L657.37 826.65 L655.87 827.65 L652.62 828.65 L611.37 828.4 L611 828.02 L611 826.27 L614 815.77 L615.25 813.27 L617.62 812.65Z M604.25 861.77 L637.12 861.65 L642.62 862.15 L644.37 862.9 L646 864.52 L646.75 868.27 L646 871.52 L644 875.27 L641.87 877.4 L637.12 879.4 L594.12 879.65 L593 879.02 L593 878.27 L593.75 877.02 L598.25 862.77 L599.62 861.9Z M668.37 933.4 L647.62 953.4 L639.25 960.77 L638.5 962.02 L639.62 962.4 L651.12 961.65 L667.62 961.65 L684.87 960.65 L711.87 960.15 L721.12 959.4 L748.37 959.15 L778.62 957.65 L844.62 956.15 L863.12 955.15 L874.87 955.15 L895.12 954.15 L906.37 954.15 L912.62 953.65 L934.62 953.4 L944.37 952.65 L972.12 952.15 L982.62 951.4 L992.62 951.65 L1007.37 950.65 L1027.62 950.4 L1045.12 949.4 L1058.62 949.4 L1081.37 948.4 L1100.12 948.15 L1109.12 947.4 L1140.62 946.4 L1152.37 945.4 L1185.12 944.15 L1191.37 943.4 L1207.87 943.15 L1208.75 942.77 L1168.37 941.4 L1139.87 941.4 L1114.87 940.4 L1047.37 939.15 L1025.87 939.15 L1011.12 938.4 L970.37 938.15 L963.12 937.65 L935.37 937.15 L905.62 937.15 L899.12 936.65 L845.62 936.15 L828.37 935.4 L807.37 935.4 L784.87 934.65 L738.37 934.4 L724.62 933.65Z M630.12 933.9 L613.5 934.27 L614.37 934.65 L644.62 934.4 L644.37 935.4 L637 941.77 L633.25 946.02 L633.62 946.4 L645.5 934.77 L645.75 934.02Z M586.37 934.4 L552.75 935.27 L553.12 935.65 L567.87 935.15 L575.37 935.4 L582.87 934.9 L587.62 935.15 L587.62 934.65 L597.62 935.15 L597.87 934.4Z" fill="#E63935" fill-rule="evenodd"/>
  <path d="M674.87 991.9 L672.12 992.4 L669.62 993.65 L665 997.77 L663 1000.77 L661.25 1006.02 L660.75 1012.77 L662 1017.77 L663 1019.27 L665.12 1021.15 L667.87 1022.4 L673.87 1022.9 L677.12 1022.15 L680.62 1020.4 L683.75 1017.02 L685.75 1010.27 L686 1007.52 L685.37 1006.65 L675.62 1006.65 L675 1007.77 L675 1009.77 L675.37 1010.15 L680.62 1010.15 L681.75 1010.77 L681 1014.02 L679.75 1016.02 L676.12 1018.4 L673.62 1018.9 L668.12 1018.15 L666 1016.27 L665 1013.77 L665.25 1007.77 L666.75 1002.02 L668 999.77 L669.37 998.4 L673.12 996.4 L677.87 995.9 L680.62 996.9 L683.37 1000.4 L685.12 1000.4 L686.75 999.77 L687 998.77 L685.75 995.77 L683.62 993.65 L679.87 992.15Z M1112.12 991.9 L1108.12 992.65 L1104.37 994.65 L1102 997.77 L1101.25 1000.52 L1101.25 1002.52 L1102 1005.27 L1103.62 1007.15 L1106.37 1008.4 L1111.37 1009.4 L1114.62 1010.65 L1116 1012.27 L1116 1015.02 L1113.37 1017.9 L1108.62 1019.15 L1104.62 1018.4 L1102.25 1016.52 L1101.62 1015.15 L1099.37 1015.65 L1098.25 1016.52 L1099 1018.77 L1101.12 1021.15 L1103.37 1022.4 L1109.37 1022.9 L1113.37 1022.15 L1116.37 1020.4 L1118.75 1018.02 L1120 1015.27 L1120.5 1011.27 L1120 1009.52 L1118.37 1007.65 L1114.37 1005.65 L1108.62 1004.4 L1106 1002.27 L1106 999.02 L1108.87 996.4 L1112.12 995.9 L1116.12 996.4 L1117.87 997.4 L1119.12 999.15 L1119.87 999.15 L1122 997.77 L1122 996.02 L1119.62 993.65 L1116.87 992.4Z M375.37 992.15 L367.62 992.4 L365 993.02 L361.25 1009.02 L361 1012.27 L359.25 1020.02 L359.25 1021.77 L359.62 1022.15 L362.37 1022.15 L363 1021.27 L364.5 1011.77 L365.37 1010.4 L371.62 1010.65 L376.25 1020.77 L377.62 1021.9 L380.62 1021.9 L381 1021.52 L378 1013.27 L376.25 1009.77 L379.12 1009.15 L382 1006.77 L384 1003.52 L384.5 1001.52 L384.5 998.77 L383.75 996.52 L381.37 993.65 L378.87 992.4Z M800.12 992.15 L793.62 992.4 L793 993.02 L790 1011.02 L789.25 1013.27 L789 1016.52 L788 1020.27 L788 1022.02 L788.62 1022.4 L791.37 1022.4 L792 1021.77 L793.75 1011.77 L794.62 1010.4 L800.37 1010.65 L803 1016.02 L805.25 1022.02 L809.62 1022.4 L810.25 1021.77 L807.75 1015.52 L805.25 1011.27 L805.25 1010.52 L809.37 1008.4 L811.75 1005.77 L813 1003.02 L813 996.77 L811.37 994.4 L808.12 992.65Z M905.37 992.15 L901.12 993.65 L897.75 996.77 L897 997.77 L896 1000.77 L896.25 1003.52 L897 1005.02 L899.37 1007.15 L907.62 1009.65 L910.12 1010.9 L911.25 1012.27 L911.25 1014.52 L909.37 1017.4 L905.87 1018.9 L901.37 1018.9 L899.37 1018.4 L895.62 1014.65 L893.37 1015.65 L893 1017.02 L894 1019.02 L896.37 1021.4 L898.87 1022.4 L904.87 1022.65 L907.12 1022.4 L909.62 1021.4 L911.87 1020.15 L913.75 1018.27 L915.25 1015.02 L915.5 1012.27 L915 1010.02 L914.25 1008.77 L911.62 1006.65 L902.62 1003.65 L901 1002.02 L900.75 1000.02 L902.37 997.4 L903.62 996.4 L905.37 995.9 L908.12 995.65 L911.37 996.4 L912.87 997.4 L914.37 999.4 L916.87 998.15 L917.5 997.02 L915.62 994.4 L912.87 992.65 L910.87 992.15Z M1056.12 992.15 L1050.37 992.65 L1050 995.27 L1051.12 996.15 L1058.37 996.15 L1059 996.77 L1058 1004.02 L1057.25 1005.77 L1057 1009.27 L1054.25 1020.52 L1054.37 1022.15 L1057.87 1022.4 L1058.75 1021.77 L1059 1021.02 L1060 1013.02 L1060.75 1011.02 L1063.25 996.77 L1064.87 996.15 L1069.62 996.15 L1072.62 995.65 L1073.25 993.02 L1072.62 992.4Z M316.12 992.4 L310.62 992.9 L310 994.77 L310.87 995.65 L316.62 995.65 L318.37 995.9 L319.25 996.77 L319 999.77 L317.25 1007.02 L317 1010.52 L316.25 1012.77 L315 1020.52 L315.62 1021.65 L317.62 1021.65 L318.75 1019.27 L319 1016.27 L321.75 1005.77 L323.25 997.02 L324.37 995.9 L332.37 995.9 L333 995.02 L333 992.77 L332.62 992.4Z M608.12 992.4 L607.25 993.52 L607 997.52 L605.25 1006.27 L605 1009.77 L603.25 1017.27 L602.75 1021.77 L603.12 1022.15 L605.62 1022.15 L606.5 1021.02 L608 1011.77 L610.62 1000.65 L611.75 1001.27 L622 1021.52 L622.62 1022.15 L626.12 1022.15 L626.75 1021.27 L627 1018.52 L629 1010.02 L629 1008.27 L631 998.27 L631.5 992.77 L628.62 992.4 L627.75 993.02 L626 1001.02 L624 1013.77 L623.62 1014.4 L623.12 1014.4 L622.25 1013.52 L621 1010.02 L613.25 996.02 L612 993.02 L611.37 992.4Z M847.37 992.4 L845.25 1002.52 L844.75 1008.02 L843.25 1014.52 L842.25 1021.77 L844.62 1022.4 L861.37 1022.15 L862 1020.77 L862 1019.02 L861.62 1018.65 L847.62 1018.4 L847 1018.02 L847 1016.77 L847.75 1014.52 L848 1010.77 L848.87 1009.15 L860.62 1009.15 L861.75 1008.27 L862 1007.27 L862 1005.77 L861.62 1005.4 L849.87 1005.15 L849.5 1003.77 L850.75 996.52 L851.37 995.9 L865.37 995.9 L866 995.02 L866 992.77 L865.37 992.4Z M951.37 992.4 L950.25 994.52 L947.25 1010.27 L947.25 1017.02 L948.25 1019.02 L950.12 1020.9 L952.37 1022.15 L956.37 1022.9 L959.37 1022.9 L962.87 1022.15 L966.37 1020.15 L968.75 1017.77 L970 1015.52 L972.75 1002.27 L974 992.77 L971.62 992.4 L970.25 993.02 L968.75 1001.77 L968.25 1002.77 L968 1006.27 L967.25 1008.52 L967 1011.77 L966 1014.77 L963.62 1017.4 L961.87 1018.4 L958.62 1019.15 L956.37 1019.15 L953.37 1018.15 L952.25 1017.02 L951.25 1014.02 L952 1008.02 L953 1004.77 L954.25 994.77 L954.75 993.52 L954.62 992.65Z M1007.62 992.4 L1007 993.02 L1005.75 1000.27 L1005.25 1001.27 L1005 1005.02 L1004 1010.77 L1003.25 1012.77 L1002 1021.27 L1002.62 1022.15 L1004.12 1022.4 L1020.62 1022.15 L1021.25 1019.52 L1021.25 1018.77 L1020.62 1018.4 L1007.62 1018.4 L1006.75 1017.77 L1011 993.77 L1011 993.02 L1010.37 992.4Z M159.37 992.65 L157.37 992.9 L156.25 994.02 L156 995.02 L152 1000.27 L144.75 1013.77 L141.5 1018.77 L140.5 1020.77 L140.87 1021.9 L143.37 1022.15 L147 1015.52 L148.37 1014.65 L159.62 1014.4 L160.62 1014.4 L161.75 1015.77 L162.5 1021.02 L163.37 1021.9 L166.75 1021.77 L165.75 1015.02 L164 1009.27 L161.25 993.77 L160.37 992.65Z M206.37 992.65 L204.37 992.9 L203.5 993.77 L203.25 995.77 L201.5 1001.02 L200.25 1009.02 L199.25 1012.27 L198.75 1017.77 L198 1020.27 L198 1021.52 L198.62 1022.15 L201.37 1022.15 L202 1021.27 L205 1002.52 L205.75 1000.27 L206 996.77 L206.75 994.27 L206.75 993.02Z M430.87 992.65 L428.37 993.15 L425.25 997.77 L413.25 1018.52 L412.25 1020.52 L412.37 1021.65 L415.37 1021.9 L419.62 1014.9 L425.87 1014.4 L432.62 1014.9 L434.25 1021.52 L435.37 1022.15 L437.62 1022.15 L438.25 1021.77 L437.75 1016.27 L436 1010.02 L432.75 993.52 L431.87 992.65Z M513.37 992.65 L510.25 1006.77 L510 1010.77 L509 1014.77 L508.25 1021.52 L508.62 1021.9 L511.12 1021.9 L511.75 1021.02 L512 1017.77 L514.75 1006.27 L515.25 1002.02 L515.5 1001.27 L516.62 1000.65 L518.25 1004.27 L521.75 1009.52 L524 1015.02 L527 1020.27 L527.25 1021.52 L528.12 1022.15 L531.62 1021.9 L532.75 1018.77 L534 1009.02 L535.75 1000.77 L536.5 993.02 L534.62 992.65 L533.25 993.52 L531 1005.77 L530 1008.77 L529.75 1011.77 L529 1014.27 L528.37 1014.65 L526 1009.02 L524.25 1006.52 L521 999.77 L517 993.02 L516.62 992.65Z M571.37 992.65 L570.25 993.77 L570 996.27 L568.25 1002.52 L567 1011.77 L565.25 1019.52 L565.25 1021.77 L565.62 1022.15 L568.62 1022.15 L569.75 1020.52 L570 1019.27 L572 1004.52 L572.75 1002.27 L574 994.27 L574 993.02 L573.62 992.65Z M476.37 992.9 L475.25 995.77 L473.25 1004.02 L473 1007.27 L470.25 1020.27 L470.25 1021.77 L470.62 1022.15 L473.62 1022.15 L474.5 1021.02 L475 1018.52 L476 1009.27 L478.75 994.77 L478.62 992.9Z M368.25 996.27 L377.37 996.15 L378.62 996.65 L379.75 997.77 L380.75 1000.27 L380 1003.77 L378.62 1005.4 L375.87 1006.65 L366.62 1006.4 L366.25 1005.02Z M797 996.27 L805.62 996.15 L807.12 996.65 L809 999.02 L809 1002.27 L808 1004.27 L805.87 1006.15 L804.12 1006.65 L795.37 1006.65 L795 1005.27 L795.75 1002.52 L796 998.77 L796.25 997.27Z M429.25 997.52 L429.75 997.52 L430.25 999.02 L430.25 1000.77 L432.25 1009.52 L432.25 1011.02 L431.87 1011.4 L422.37 1011.4 L422 1010.27 L422.75 1008.52 L427.75 1000.02 L428 998.77Z M157.25 997.77 L157.87 997.65 L158.75 999.27 L159 1002.27 L161 1011.27 L160.62 1011.65 L151.12 1011.4 L150.75 1010.02 L156 999.52Z M1152.62 1016.65 L1151.12 1017.4 L1150 1018.77 L1150 1021.27 L1151.37 1022.65 L1153.37 1022.65 L1154.37 1022.15 L1155.25 1020.02 L1155 1017.77Z M716.87 1017.15 L715 1019.02 L715 1021.02 L716.37 1022.4 L718.12 1022.4 L719.75 1020.52 L719.75 1018.27 L718.62 1017.15Z M236.62 1017.4 L235.25 1018.02 L234.5 1020.02 L235.62 1021.65 L237.62 1021.9 L239 1021.02 L239.5 1019.02 L238.62 1017.65Z" fill="#0D0D0D" fill-rule="evenodd"/>
</svg>
